<?xml version="1.0" encoding="UTF-8" standalone="no"?>
<!-- Created with Inkscape (http://www.inkscape.org/) -->

<svg
   xmlns:osb="http://www.openswatchbook.org/uri/2009/osb"
   xmlns:dc="http://purl.org/dc/elements/1.1/"
   xmlns:cc="http://creativecommons.org/ns#"
   xmlns:rdf="http://www.w3.org/1999/02/22-rdf-syntax-ns#"
   xmlns:svg="http://www.w3.org/2000/svg"
   xmlns="http://www.w3.org/2000/svg"
   xmlns:sodipodi="http://sodipodi.sourceforge.net/DTD/sodipodi-0.dtd"
   xmlns:inkscape="http://www.inkscape.org/namespaces/inkscape"
   width="744.09448819"
   height="1052.3622047"
   id="svg2"
   version="1.1"
   inkscape:version="0.48.2 r9819"
   sodipodi:docname="drawing.svg">
  <defs
     id="defs4">
    <marker
       inkscape:stockid="Arrow2Lend"
       orient="auto"
       refY="0.0"
       refX="0.0"
       id="Arrow2Lend"
       style="overflow:visible;">
      <path
         id="path4462"
         style="font-size:12.0;fill-rule:evenodd;stroke-width:0.62500000;stroke-linejoin:round;"
         d="M 8.7185878,4.0337352 L -2.2072895,0.016013256 L 8.7185884,-4.0017078 C 6.9730900,-1.6296469 6.9831476,1.6157441 8.7185878,4.0337352 z "
         transform="scale(1.1) rotate(180) translate(1,0)" />
    </marker>
    <marker
       inkscape:stockid="Arrow2Lstart"
       orient="auto"
       refY="0.0"
       refX="0.0"
       id="Arrow2Lstart"
       style="overflow:visible">
      <path
         id="path4459"
         style="font-size:12.0;fill-rule:evenodd;stroke-width:0.62500000;stroke-linejoin:round"
         d="M 8.7185878,4.0337352 L -2.2072895,0.016013256 L 8.7185884,-4.0017078 C 6.9730900,-1.6296469 6.9831476,1.6157441 8.7185878,4.0337352 z "
         transform="scale(1.1) translate(1,0)" />
    </marker>
    <marker
       inkscape:stockid="Arrow1Lstart"
       orient="auto"
       refY="0.0"
       refX="0.0"
       id="Arrow1Lstart"
       style="overflow:visible">
      <path
         id="path4441"
         d="M 0.0,0.0 L 5.0,-5.0 L -12.5,0.0 L 5.0,5.0 L 0.0,0.0 z "
         style="fill-rule:evenodd;stroke:#000000;stroke-width:1.0pt;marker-start:none"
         transform="scale(0.8) translate(12.5,0)" />
    </marker>
    <linearGradient
       id="linearGradient5707"
       osb:paint="solid">
      <stop
         style="stop-color:#ffffff;stop-opacity:1;"
         offset="0"
         id="stop5709" />
    </linearGradient>
    <inkscape:perspective
       sodipodi:type="inkscape:persp3d"
       inkscape:vp_x="0 : 526.18109 : 1"
       inkscape:vp_y="0 : 1000 : 0"
       inkscape:vp_z="744.09448 : 526.18109 : 1"
       inkscape:persp3d-origin="372.04724 : 350.78739 : 1"
       id="perspective3948" />
  </defs>
  <sodipodi:namedview
     id="base"
     pagecolor="#ffffff"
     bordercolor="#666666"
     borderopacity="1.0"
     inkscape:pageopacity="0.0"
     inkscape:pageshadow="2"
     inkscape:zoom="0.78283069"
     inkscape:cx="155.76328"
     inkscape:cy="727.98535"
     inkscape:document-units="px"
     inkscape:current-layer="layer1"
     showgrid="false"
     showguides="true"
     inkscape:window-width="1680"
     inkscape:window-height="949"
     inkscape:window-x="1280"
     inkscape:window-y="22"
     inkscape:window-maximized="1"
     inkscape:guide-bbox="true">
    <inkscape:grid
       type="xygrid"
       id="grid5741" />
  </sodipodi:namedview>
  <metadata
     id="metadata7">
    <rdf:RDF>
      <cc:Work
         rdf:about="">
        <dc:format>image/svg+xml</dc:format>
        <dc:type
           rdf:resource="http://purl.org/dc/dcmitype/StillImage" />
        <dc:title />
      </cc:Work>
    </rdf:RDF>
  </metadata>
  <g
     inkscape:label="Layer 1"
     inkscape:groupmode="layer"
     id="layer1">
    <path
       style="fill:#ffffff;fill-opacity:0"
       id="path3801"
       d="m 102.81646,-844.03306 c -0.26888,6.17177 0.33328,12.54776 2.62149,18.34139 0.63805,1.61551 1.51401,3.1266 2.27102,4.68991 1.08492,1.49495 2.03228,3.10012 3.25477,4.48484 4.26913,4.83568 9.99902,8.48631 16.08569,10.57579 6.50752,2.23394 9.1812,2.06235 16.10168,2.73372 11.33323,0.32485 22.61624,-1.13029 33.41415,-4.60193 4.26994,-1.37283 6.53711,-2.42819 10.54379,-4.12705 4.91014,-2.21198 9.78427,-4.55278 14.87324,-6.33819 3.00228,-1.05331 5.73159,-1.81409 8.7825,-2.71209 5.50619,-1.33074 2.79709,-0.81131 8.1199,-1.59625 0,0 -5.57758,4.18084 -5.57758,4.18084 l 0,0 c -5.21124,0.79781 -2.5512,0.27629 -7.97213,1.60479 -3.55449,1.06237 -5.31,1.53137 -8.8047,2.80012 -5.02536,1.82445 -9.85298,4.14553 -14.7548,6.2659 -3.95236,1.6025 -6.09797,2.56416 -10.31363,3.84488 -10.81597,3.28592 -22.09093,4.59415 -33.38109,4.28883 -7.06845,-0.67786 -9.76759,-0.50047 -16.42184,-2.76432 -6.22185,-2.11674 -12.06988,-5.83513 -16.46316,-10.74144 -1.25952,-1.4066 -2.24,-3.04007 -3.36001,-4.56011 -0.78822,-1.58551 -1.69512,-3.11737 -2.364675,-4.75653 -2.350249,-5.75372 -3.036008,-12.08134 -3.287483,-18.23348 0,0 6.632868,-3.37962 6.632868,-3.37962 z"
       inkscape:connector-curvature="0" />
    <g
       id="g9194"
       transform="translate(-8.9419069,30.657971)">
      <g
         id="g9340">
        <path
           sodipodi:type="arc"
           style="fill:none;stroke:#000000;stroke-width:5.04565477;stroke-miterlimit:4;stroke-opacity:1;stroke-dasharray:none"
           id="path5757"
           sodipodi:cx="267.69043"
           sodipodi:cy="462.43311"
           sodipodi:rx="143.44167"
           sodipodi:ry="84.852814"
           d="m 411.1321,462.43311 c 0,46.86291 -64.22103,84.85281 -143.44167,84.85281 -79.22064,0 -143.44167,-37.9899 -143.44167,-84.85281 0,-46.86292 64.22103,-84.85282 143.44167,-84.85282 79.22064,0 143.44167,37.9899 143.44167,84.85282 z"
           transform="matrix(0.15068225,0,0,0.26067709,515.21137,12.95881)" />
        <path
           transform="matrix(0.15068225,0,0,0.26067709,486.63994,75.10167)"
           d="m 411.1321,462.43311 c 0,46.86291 -64.22103,84.85281 -143.44167,84.85281 -79.22064,0 -143.44167,-37.9899 -143.44167,-84.85281 0,-46.86292 64.22103,-84.85282 143.44167,-84.85282 79.22064,0 143.44167,37.9899 143.44167,84.85282 z"
           sodipodi:ry="84.852814"
           sodipodi:rx="143.44167"
           sodipodi:cy="462.43311"
           sodipodi:cx="267.69043"
           id="path5759"
           style="fill:none;stroke:#000000;stroke-width:5.04565477;stroke-miterlimit:4;stroke-opacity:1;stroke-dasharray:none"
           sodipodi:type="arc" />
        <path
           sodipodi:type="arc"
           style="fill:none;stroke:#000000;stroke-width:5.04565477;stroke-miterlimit:4;stroke-opacity:1;stroke-dasharray:none"
           id="path5761"
           sodipodi:cx="267.69043"
           sodipodi:cy="462.43311"
           sodipodi:rx="143.44167"
           sodipodi:ry="84.852814"
           d="m 411.1321,462.43311 c 0,46.86291 -64.22103,84.85281 -143.44167,84.85281 -79.22064,0 -143.44167,-37.9899 -143.44167,-84.85281 0,-46.86292 64.22103,-84.85282 143.44167,-84.85282 79.22064,0 143.44167,37.9899 143.44167,84.85282 z"
           transform="matrix(0.15068225,0,0,0.26067709,584.49708,80.10166)" />
        <path
           transform="matrix(0.15068225,0,0,0.26067709,567.35423,148.6731)"
           d="m 411.1321,462.43311 c 0,46.86291 -64.22103,84.85281 -143.44167,84.85281 -79.22064,0 -143.44167,-37.9899 -143.44167,-84.85281 0,-46.86292 64.22103,-84.85282 143.44167,-84.85282 79.22064,0 143.44167,37.9899 143.44167,84.85282 z"
           sodipodi:ry="84.852814"
           sodipodi:rx="143.44167"
           sodipodi:cy="462.43311"
           sodipodi:cx="267.69043"
           id="path5763"
           style="fill:none;stroke:#000000;stroke-width:5.04565477;stroke-miterlimit:4;stroke-opacity:1;stroke-dasharray:none"
           sodipodi:type="arc" />
        <path
           sodipodi:type="arc"
           style="fill:none;stroke:#000000;stroke-width:5.04565477;stroke-miterlimit:4;stroke-opacity:1;stroke-dasharray:none"
           id="path5765"
           sodipodi:cx="267.69043"
           sodipodi:cy="462.43311"
           sodipodi:rx="143.44167"
           sodipodi:ry="84.852814"
           d="m 411.1321,462.43311 c 0,46.86291 -64.22103,84.85281 -143.44167,84.85281 -79.22064,0 -143.44167,-37.9899 -143.44167,-84.85281 0,-46.86292 64.22103,-84.85282 143.44167,-84.85282 79.22064,0 143.44167,37.9899 143.44167,84.85282 z"
           transform="matrix(0.15068225,0,0,0.26067709,511.63993,139.38738)" />
        <path
           transform="matrix(0.15068225,0,0,0.26067709,438.0685,137.24452)"
           d="m 411.1321,462.43311 c 0,46.86291 -64.22103,84.85281 -143.44167,84.85281 -79.22064,0 -143.44167,-37.9899 -143.44167,-84.85281 0,-46.86292 64.22103,-84.85282 143.44167,-84.85282 79.22064,0 143.44167,37.9899 143.44167,84.85282 z"
           sodipodi:ry="84.852814"
           sodipodi:rx="143.44167"
           sodipodi:cy="462.43311"
           sodipodi:cx="267.69043"
           id="path5767"
           style="fill:none;stroke:#000000;stroke-width:5.04565477;stroke-miterlimit:4;stroke-opacity:1;stroke-dasharray:none"
           sodipodi:type="arc" />
        <path
           sodipodi:type="arc"
           style="fill:none;stroke:#000000;stroke-width:5.04565477;stroke-miterlimit:4;stroke-opacity:1;stroke-dasharray:none"
           id="path5769"
           sodipodi:cx="267.69043"
           sodipodi:cy="462.43311"
           sodipodi:rx="143.44167"
           sodipodi:ry="84.852814"
           d="m 411.1321,462.43311 c 0,46.86291 -64.22103,84.85281 -143.44167,84.85281 -79.22064,0 -143.44167,-37.9899 -143.44167,-84.85281 0,-46.86292 64.22103,-84.85282 143.44167,-84.85282 79.22064,0 143.44167,37.9899 143.44167,84.85282 z"
           transform="matrix(0.15068225,0,0,0.26067709,660.21137,144.38738)" />
        <path
           inkscape:connection-start="#path5757"
           inkscape:connection-start-point="d4"
           inkscape:connection-end="#path5759"
           inkscape:connection-end-point="d4"
           inkscape:connector-curvature="0"
           inkscape:connector-type="polyline"
           id="path7284"
           d="m 546.34336,153.52368 -10.16302,22.10455"
           style="fill:none;stroke:#000000;stroke-width:1px;stroke-linecap:butt;stroke-linejoin:miter;stroke-opacity:1" />
        <path
           inkscape:connection-start="#path5759"
           inkscape:connection-start-point="d4"
           inkscape:connection-end="#path5765"
           inkscape:connection-end-point="d4"
           inkscape:connector-curvature="0"
           inkscape:connector-type="polyline"
           id="path7286"
           d="m 534.9705,216.20432 9.01127,23.17184"
           style="fill:none;stroke:#000000;stroke-width:1px;stroke-linecap:butt;stroke-linejoin:miter;stroke-opacity:1" />
        <path
           inkscape:connection-start="#path5759"
           inkscape:connection-start-point="d4"
           inkscape:connection-end="#path5767"
           inkscape:connection-end-point="d4"
           inkscape:connector-curvature="0"
           inkscape:connector-type="polyline"
           id="path7290"
           d="m 513.47471,212.92126 -21.56859,27.5951"
           style="fill:none;stroke:#000000;stroke-width:1px;stroke-linecap:butt;stroke-linejoin:miter;stroke-opacity:1" />
        <path
           inkscape:connection-start="#path5757"
           inkscape:connection-start-point="d4"
           inkscape:connection-end="#path5761"
           inkscape:connection-end-point="d4"
           inkscape:connector-curvature="0"
           inkscape:connector-type="polyline"
           id="path7292"
           d="m 571.24175,148.71332 37.89734,36.72526"
           style="fill:none;stroke:#000000;stroke-width:1px;stroke-linecap:butt;stroke-linejoin:miter;stroke-opacity:1" />
        <path
           inkscape:connection-start="#path5761"
           inkscape:connection-start-point="d4"
           inkscape:connection-end="#path5763"
           inkscape:connection-end-point="d4"
           inkscape:connector-curvature="0"
           inkscape:connector-type="polyline"
           id="path7296"
           d="m 619.47475,222.08151 -6.42579,25.70317"
           style="fill:none;stroke:#000000;stroke-width:1px;stroke-linecap:butt;stroke-linejoin:miter;stroke-opacity:1" />
        <path
           sodipodi:type="arc"
           style="fill:none;stroke:#000000;stroke-width:5.04565477;stroke-miterlimit:4;stroke-opacity:1;stroke-dasharray:none"
           id="path7306"
           sodipodi:cx="267.69043"
           sodipodi:cy="462.43311"
           sodipodi:rx="143.44167"
           sodipodi:ry="84.852814"
           d="m 411.1321,462.43311 c 0,46.86291 -64.22103,84.85281 -143.44167,84.85281 -79.22064,0 -143.44167,-37.9899 -143.44167,-84.85281 0,-46.86292 64.22103,-84.85282 143.44167,-84.85282 79.22064,0 143.44167,37.9899 143.44167,84.85282 z"
           transform="matrix(0.15068225,0,0,0.26067709,613.7828,145.81595)" />
        <path
           inkscape:connection-start="#path5761"
           inkscape:connection-start-point="d4"
           inkscape:connection-end="#path7306"
           inkscape:connection-end-point="d4"
           inkscape:connector-curvature="0"
           inkscape:connector-type="polyline"
           id="path7310"
           d="m 633.80422,220.7773 11.34383,25.45444"
           style="fill:none;stroke:#000000;stroke-width:1px;stroke-linecap:butt;stroke-linejoin:miter;stroke-opacity:1" />
        <path
           inkscape:connection-start="#path5761"
           inkscape:connection-start-point="d4"
           inkscape:connection-end="#path5769"
           inkscape:connection-end-point="d4"
           inkscape:connector-curvature="0"
           inkscape:connector-type="polyline"
           id="path7312"
           d="m 641.46807,214.77126 42.4447,36.03796"
           style="fill:none;stroke:#000000;stroke-width:1px;stroke-linecap:butt;stroke-linejoin:miter;stroke-opacity:1" />
        <rect
           y="79.631783"
           x="442.94238"
           height="229.89766"
           width="289.25156"
           id="rect7316"
           style="fill:#000000;fill-opacity:0;stroke:#000000;stroke-width:0.89782476;stroke-miterlimit:4;stroke-opacity:1;stroke-dasharray:none;stroke-dashoffset:0" />
        <text
           sodipodi:linespacing="125%"
           id="text8965"
           y="139.79077"
           x="547"
           style="font-size:40px;font-style:normal;font-weight:normal;line-height:125%;letter-spacing:0px;word-spacing:0px;fill:#000000;fill-opacity:1;stroke:none;font-family:Sans"
           xml:space="preserve"><tspan
             style="font-size:20px"
             y="139.79077"
             x="547"
             id="tspan8967"
             sodipodi:role="line">u</tspan></text>
        <text
           sodipodi:linespacing="125%"
           id="text8973"
           y="200.64789"
           x="519"
           style="font-size:40px;font-style:normal;font-weight:normal;line-height:125%;letter-spacing:0px;word-spacing:0px;fill:#000000;fill-opacity:1;stroke:none;font-family:Sans"
           xml:space="preserve"><tspan
             y="200.64789"
             x="519"
             id="tspan8975"
             sodipodi:role="line"
             style="font-size:25px">v</tspan></text>
        <text
           sodipodi:linespacing="125%"
           id="text8981"
           y="267.64792"
           x="541.14282"
           style="font-size:40px;font-style:normal;font-weight:normal;line-height:125%;letter-spacing:0px;word-spacing:0px;fill:#000000;fill-opacity:1;stroke:none;font-family:Sans"
           xml:space="preserve"><tspan
             y="267.64792"
             x="541.14282"
             id="tspan8983"
             sodipodi:role="line"
             style="font-size:25px">w</tspan></text>
        <text
           xml:space="preserve"
           style="font-size:40px;font-style:normal;font-weight:normal;line-height:125%;letter-spacing:0px;word-spacing:0px;fill:#000000;fill-opacity:1;stroke:none;font-family:Sans"
           x="470.0889"
           y="116.01669"
           id="text9095"
           sodipodi:linespacing="125%"><tspan
             sodipodi:role="line"
             id="tspan9097"
             x="470.0889"
             y="116.01669">T</tspan></text>
        <text
           sodipodi:linespacing="125%"
           id="text9122"
           y="113.27704"
           x="513.29462"
           style="font-size:22.86315346px;font-style:normal;font-weight:normal;line-height:125%;letter-spacing:0px;word-spacing:0px;fill:#000000;fill-opacity:1;stroke:none;font-family:Sans"
           xml:space="preserve"
           transform="scale(0.95774413,1.0441202)"><tspan
             y="113.27704"
             x="513.29462"
             id="tspan9124"
             sodipodi:role="line">m</tspan></text>
      </g>
    </g>
    <g
       id="g9450"
       transform="translate(-91.97391,-72.812677)">
      <path
         transform="translate(-49.819201,61.31594)"
         d="m 582.85802,374.04474 c 0,15.89992 -15.82912,28.78935 -35.35533,28.78935 -19.52622,0 -35.35534,-12.88943 -35.35534,-28.78935 0,-15.89992 15.82912,-28.78935 35.35534,-28.78935 19.52621,0 35.35533,12.88943 35.35533,28.78935 z"
         sodipodi:ry="28.789347"
         sodipodi:rx="35.355339"
         sodipodi:cy="374.04474"
         sodipodi:cx="547.50269"
         id="path3912"
         style="fill:none"
         sodipodi:type="arc" />
      <path
         transform="matrix(0.15068225,0,0,0.26067709,123.9636,48.91761)"
         d="m 411.1321,462.43311 c 0,46.86291 -64.22103,84.85281 -143.44167,84.85281 -79.22064,0 -143.44167,-37.9899 -143.44167,-84.85281 0,-46.86292 64.22103,-84.85282 143.44167,-84.85282 79.22064,0 143.44167,37.9899 143.44167,84.85282 z"
         sodipodi:ry="84.852814"
         sodipodi:rx="143.44167"
         sodipodi:cy="462.43311"
         sodipodi:cx="267.69043"
         id="path3914"
         style="fill:none;stroke:#000000;stroke-width:5.04565477;stroke-linecap:butt;stroke-miterlimit:4;stroke-opacity:1;stroke-dasharray:none;marker-start:none"
         sodipodi:type="arc" />
      <path
         sodipodi:type="arc"
         style="fill:none;stroke:#000000;stroke-width:5.04565477;stroke-miterlimit:4;stroke-opacity:1;stroke-dasharray:none"
         id="path3950"
         sodipodi:cx="267.69043"
         sodipodi:cy="462.43311"
         sodipodi:rx="143.44167"
         sodipodi:ry="84.852814"
         d="m 411.1321,462.43311 c 0,46.86291 -64.22103,84.85281 -143.44167,84.85281 -79.22064,0 -143.44167,-37.9899 -143.44167,-84.85281 0,-46.86292 64.22103,-84.85282 143.44167,-84.85282 79.22064,0 143.44167,37.9899 143.44167,84.85282 z"
         transform="matrix(0.15068225,0,0,0.26067709,123.24931,106.41761)" />
      <path
         inkscape:connector-curvature="0"
         inkscape:connector-type="polyline"
         id="path3954"
         d="m 164.02504,191.58076 -0.16478,13.26513"
         style="fill:none;stroke:#000000;stroke-width:1px;stroke-linecap:butt;stroke-linejoin:miter;stroke-opacity:1"
         inkscape:connection-end-point="d4"
         inkscape:connection-end="#path3950"
         inkscape:connection-start-point="d4"
         inkscape:connection-start="#path3914" />
      <path
         transform="matrix(0.15068225,0,0,0.26067709,121.82074,156.77474)"
         d="m 411.1321,462.43311 c 0,46.86291 -64.22103,84.85281 -143.44167,84.85281 -79.22064,0 -143.44167,-37.9899 -143.44167,-84.85281 0,-46.86292 64.22103,-84.85282 143.44167,-84.85282 79.22064,0 143.44167,37.9899 143.44167,84.85282 z"
         sodipodi:ry="84.852814"
         sodipodi:rx="143.44167"
         sodipodi:cy="462.43311"
         sodipodi:cx="267.69043"
         id="path3978"
         style="fill:none;stroke:#000000;stroke-width:5.04565477;stroke-miterlimit:4;stroke-opacity:1;stroke-dasharray:none"
         sodipodi:type="arc" />
      <path
         inkscape:connector-curvature="0"
         inkscape:connector-type="polyline"
         id="path3986"
         d="m 162.95827,249.07338 -0.1741,6.13703"
         style="fill:none;stroke:#000000;stroke-width:1px;stroke-linecap:butt;stroke-linejoin:miter;stroke-opacity:1"
         inkscape:connection-end-point="d4"
         inkscape:connection-end="#path3978"
         inkscape:connection-start-point="d4"
         inkscape:connection-start="#path3950" />
      <path
         transform="matrix(0.15068225,0,0,0.26067709,118.96359,247.13188)"
         d="m 411.1321,462.43311 c 0,46.86291 -64.22103,84.85281 -143.44167,84.85281 -79.22064,0 -143.44167,-37.9899 -143.44167,-84.85281 0,-46.86292 64.22103,-84.85282 143.44167,-84.85282 79.22064,0 143.44167,37.9899 143.44167,84.85282 z"
         sodipodi:ry="84.852814"
         sodipodi:rx="143.44167"
         sodipodi:cy="462.43311"
         sodipodi:cx="267.69043"
         id="path4036"
         style="fill:none;stroke:#000000;stroke-width:5.04565477;stroke-miterlimit:4;stroke-opacity:1;stroke-dasharray:none"
         sodipodi:type="arc" />
      <path
         sodipodi:type="arc"
         style="fill:none;stroke:#000000;stroke-width:5.04565477;stroke-miterlimit:4;stroke-opacity:1;stroke-dasharray:none"
         id="path4038"
         sodipodi:cx="267.69043"
         sodipodi:cy="462.43311"
         sodipodi:rx="143.44167"
         sodipodi:ry="84.852814"
         d="m 411.1321,462.43311 c 0,46.86291 -64.22103,84.85281 -143.44167,84.85281 -79.22064,0 -143.44167,-37.9899 -143.44167,-84.85281 0,-46.86292 64.22103,-84.85282 143.44167,-84.85282 79.22064,0 143.44167,37.9899 143.44167,84.85282 z"
         transform="matrix(0.15068225,0,0,0.26067709,120.03502,319.98902)" />
      <path
         style="fill:none;stroke:#000000;stroke-width:1.16606867;stroke-linecap:butt;stroke-linejoin:miter;stroke-miterlimit:4;stroke-opacity:1;stroke-dasharray:1.16606864, 3.49820593;stroke-dashoffset:0"
         d="m 240.00518,262.33259 -43.31279,76.97679 89.83394,0 z"
         id="path5725"
         inkscape:connector-curvature="0" />
      <path
         inkscape:connector-curvature="0"
         inkscape:connector-type="polyline"
         id="path5737"
         d="m 189.75374,235.1234 51.3301,29.38927"
         style="fill:none;stroke:#000000;stroke-width:1.35993981;stroke-linecap:butt;stroke-linejoin:miter;stroke-miterlimit:4;stroke-opacity:1;stroke-dasharray:1.35993989, 4.07981969;stroke-dashoffset:0" />
      <path
         transform="matrix(0,-0.15068225,0.26067709,0,97.272499,481.17572)"
         d="m 411.1321,462.43311 c 0,46.86291 -64.22103,84.85281 -143.44167,84.85281 -79.22064,0 -143.44167,-37.9899 -143.44167,-84.85281 0,-46.86292 64.22103,-84.85282 143.44167,-84.85282 79.22064,0 143.44167,37.9899 143.44167,84.85282 z"
         sodipodi:ry="84.852814"
         sodipodi:rx="143.44167"
         sodipodi:cy="462.43311"
         sodipodi:cx="267.69043"
         id="path3602"
         style="fill:none;stroke:#000000;stroke-width:5.04565477;stroke-miterlimit:4;stroke-opacity:1;stroke-dasharray:none"
         sodipodi:type="arc" />
      <path
         style="fill:none;stroke:#000000;stroke-width:1px;stroke-linecap:butt;stroke-linejoin:miter;stroke-opacity:1"
         d="m 182.43565,440.39998 13.26513,0.16479"
         id="path3604"
         inkscape:connector-type="polyline"
         inkscape:connector-curvature="0" />
      <path
         sodipodi:type="arc"
         style="fill:none;stroke:#000000;stroke-width:5.04565477;stroke-miterlimit:4;stroke-opacity:1;stroke-dasharray:none"
         id="path3606"
         sodipodi:cx="267.69043"
         sodipodi:cy="462.43311"
         sodipodi:rx="143.44167"
         sodipodi:ry="84.852814"
         d="m 411.1321,462.43311 c 0,46.86291 -64.22103,84.85281 -143.44167,84.85281 -79.22064,0 -143.44167,-37.9899 -143.44167,-84.85281 0,-46.86292 64.22103,-84.85282 143.44167,-84.85282 79.22064,0 143.44167,37.9899 143.44167,84.85282 z"
         transform="matrix(0,-0.15068225,0.26067709,0,147.62963,482.60429)" />
      <path
         style="fill:none;stroke:#000000;stroke-width:1px;stroke-linecap:butt;stroke-linejoin:miter;stroke-opacity:1"
         d="m 239.92826,441.46676 6.13703,0.1741"
         id="path3608"
         inkscape:connector-type="polyline"
         inkscape:connector-curvature="0" />
      <path
         sodipodi:type="arc"
         style="fill:none;stroke:#000000;stroke-width:5.04565477;stroke-miterlimit:4;stroke-opacity:1;stroke-dasharray:none"
         id="path3610"
         sodipodi:cx="267.69043"
         sodipodi:cy="462.43311"
         sodipodi:rx="143.44167"
         sodipodi:ry="84.852814"
         d="m 411.1321,462.43311 c 0,46.86291 -64.22103,84.85281 -143.44167,84.85281 -79.22064,0 -143.44167,-37.9899 -143.44167,-84.85281 0,-46.86292 64.22103,-84.85282 143.44167,-84.85282 79.22064,0 143.44167,37.9899 143.44167,84.85282 z"
         transform="matrix(0,-0.15068225,0.26067709,0,237.98677,485.46144)" />
      <path
         transform="matrix(0,-0.15068225,0.26067709,0,310.84391,484.39001)"
         d="m 411.1321,462.43311 c 0,46.86291 -64.22103,84.85281 -143.44167,84.85281 -79.22064,0 -143.44167,-37.9899 -143.44167,-84.85281 0,-46.86292 64.22103,-84.85282 143.44167,-84.85282 79.22064,0 143.44167,37.9899 143.44167,84.85282 z"
         sodipodi:ry="84.852814"
         sodipodi:rx="143.44167"
         sodipodi:cy="462.43311"
         sodipodi:cx="267.69043"
         id="path3612"
         style="fill:none;stroke:#000000;stroke-width:5.04565477;stroke-miterlimit:4;stroke-opacity:1;stroke-dasharray:none"
         sodipodi:type="arc" />
      <path
         style="fill:none;stroke:#000000;stroke-width:1;stroke-linecap:butt;stroke-linejoin:miter;stroke-miterlimit:4;stroke-opacity:1;stroke-dasharray:none;stroke-dashoffset:0"
         d="m 380.39473,443.58678 28.62367,-0.42094"
         id="path3614"
         inkscape:connector-type="polyline"
         inkscape:connector-curvature="0" />
      <path
         style="fill:none;stroke:#000000;stroke-width:1;stroke-linecap:butt;stroke-linejoin:miter;stroke-miterlimit:4;stroke-opacity:1;stroke-dasharray:1, 3;stroke-dashoffset:0"
         d="m 290.28318,442.96716 46.14147,1.45902"
         id="path3618"
         inkscape:connector-type="polyline"
         inkscape:connector-curvature="0" />
      <path
         sodipodi:nodetypes="cccc"
         inkscape:connector-curvature="0"
         id="path3620"
         d="m 250.06646,501.08937 76.97679,43.31279 c 2.43545,-61.60544 0.78389,-70.0799 0,-89.83394 7.33418,-8.05945 -38.6223,21.94584 -76.97679,46.52115 z"
         style="fill:none;stroke:#000000;stroke-width:1.16606867;stroke-linecap:butt;stroke-linejoin:miter;stroke-miterlimit:4;stroke-opacity:1;stroke-dasharray:1.16606864, 3.49820593;stroke-dashoffset:0" />
      <path
         style="fill:none;stroke:#000000;stroke-width:1.17000115;stroke-linecap:butt;stroke-linejoin:miter;stroke-miterlimit:4;stroke-opacity:1;stroke-dasharray:1.17000127, 3.5100038;stroke-dashoffset:0"
         d="m 216.79195,463.41343 31.18279,35.80794"
         id="path3622"
         inkscape:connector-type="polyline"
         inkscape:connector-curvature="0" />
      <path
         sodipodi:nodetypes="csccsssssc"
         style="fill:none;stroke:#000000;stroke-width:1;stroke-linecap:butt;stroke-linejoin:miter;stroke-miterlimit:4;stroke-opacity:1;stroke-dasharray:4, 1;stroke-dashoffset:0"
         d="m 175.44482,500.51553 c 0,0 -53.82102,5.58517 -50.79056,-34.82093 3.03046,-40.4061 -8.7116,-297.96008 19.57267,-319.17329 63.14426,-36.91336 42.90218,20.94475 45.71786,54.96658 9.09137,27.27412 2.09281,19.54155 17.2451,35.70399 15.15228,16.16244 37.95545,9.77536 58.1585,34.01902 20.20305,24.24366 42.42641,77.78175 35.35534,93.94419 -7.07106,16.16244 -110.10662,-23.23351 -111.11678,-3.03046 -1.01015,20.20305 9.09138,112.12693 -2.0203,127.27922 -11.11168,15.15229 -12.12183,11.11168 -12.12183,11.11168 z"
         id="path3658"
         inkscape:connector-curvature="0" />
      <path
         sodipodi:nodetypes="csssssssssc"
         inkscape:connector-curvature="0"
         id="path3660"
         d="m 114.63203,467.96383 c 0,0 -8.32407,-64.50833 32.06719,-61.36801 23.36847,1.81684 203.68797,-24.9386 304.78276,7.43252 32.86481,10.5235 26.04367,47.60771 -1.23178,56.35621 -17.79358,5.70723 -36.76703,9.09845 -61.31349,6.90882 -13.08036,-1.16682 -29.65936,-4.8879 -46.56953,18.63949 -14.30974,19.90936 17.29533,31.74823 -6.94951,51.18933 -24.24484,19.4411 -52.34682,-16.62755 -68.51005,-23.43194 -16.16323,-6.80438 -23.5272,-22.17694 -43.73123,-23.149 -20.20403,-0.97205 -82.32451,9.65177 -97.47754,-1.04084 -15.15303,-10.69261 -11.06682,-31.53658 -11.06682,-31.53658 z"
         style="fill:none;stroke:#000000;stroke-width:0.98098546;stroke-linecap:butt;stroke-linejoin:miter;stroke-miterlimit:4;stroke-opacity:1;stroke-dasharray:3.92394178, 0.98098545;stroke-dashoffset:0" />
      <text
         sodipodi:linespacing="125%"
         id="text8985"
         y="176.24956"
         x="154.89511"
         style="font-size:40px;font-style:normal;font-weight:normal;line-height:125%;letter-spacing:0px;word-spacing:0px;fill:#000000;fill-opacity:1;stroke:none;font-family:Sans"
         xml:space="preserve"><tspan
           style="font-size:25px"
           y="176.24956"
           x="154.89511"
           id="tspan8987"
           sodipodi:role="line">u</tspan></text>
      <text
         sodipodi:linespacing="125%"
         id="text9016"
         y="450.53528"
         x="421.89505"
         style="font-size:40px;font-style:normal;font-weight:normal;line-height:125%;letter-spacing:0px;word-spacing:0px;fill:#000000;fill-opacity:1;stroke:none;font-family:Sans"
         xml:space="preserve"><tspan
           style="font-size:25px"
           y="450.53528"
           x="421.89505"
           id="tspan9018"
           sodipodi:role="line">w</tspan></text>
      <text
         xml:space="preserve"
         style="font-size:40px;font-style:normal;font-weight:normal;line-height:125%;letter-spacing:0px;word-spacing:0px;fill:#000000;fill-opacity:1;stroke:none;font-family:Sans"
         x="138.59958"
         y="373.33203"
         id="text9030"
         sodipodi:linespacing="125%"><tspan
           sodipodi:role="line"
           id="tspan9032"
           x="138.59958"
           y="373.33203"
           style="font-size:25px;letter-spacing:-3px">p(v)</tspan></text>
      <text
         sodipodi:linespacing="125%"
         id="text9034"
         y="448.14471"
         x="197.36069"
         style="font-size:40px;font-style:normal;font-weight:normal;line-height:125%;letter-spacing:0px;word-spacing:0px;fill:#000000;fill-opacity:1;stroke:none;font-family:Sans"
         xml:space="preserve"><tspan
           style="font-size:25px;letter-spacing:-3px"
           y="448.14471"
           x="197.36069"
           id="tspan9036"
           sodipodi:role="line">c(v)</tspan></text>
      <text
         sodipodi:linespacing="125%"
         id="text9126"
         y="225.73044"
         x="204.3223"
         style="font-size:40px;font-style:normal;font-weight:normal;line-height:125%;letter-spacing:0px;word-spacing:0px;fill:#000000;fill-opacity:1;stroke:none;font-family:Sans"
         xml:space="preserve"><tspan
           style="font-size:28px"
           y="225.73044"
           x="204.3223"
           id="tspan9128"
           sodipodi:role="line">C(u,v)</tspan></text>
      <text
         xml:space="preserve"
         style="font-size:40px;font-style:normal;font-weight:normal;line-height:125%;letter-spacing:0px;word-spacing:0px;fill:#000000;fill-opacity:1;stroke:none;font-family:Sans"
         x="367.38022"
         y="514.13922"
         id="text9130"
         sodipodi:linespacing="125%"><tspan
           sodipodi:role="line"
           id="tspan9132"
           x="367.38022"
           y="514.13922"
           style="font-size:28px">C(v,w)</tspan></text>
      <text
         sodipodi:linespacing="125%"
         id="text9446"
         y="448.69955"
         x="153.1544"
         style="font-size:40px;font-style:normal;font-weight:normal;line-height:125%;letter-spacing:0px;word-spacing:0px;fill:#000000;fill-opacity:1;stroke:none;font-family:Sans"
         xml:space="preserve"><tspan
           style="font-size:25px;letter-spacing:-3px"
           y="448.69955"
           x="153.1544"
           id="tspan9448"
           sodipodi:role="line">v</tspan></text>
      <text
         xml:space="preserve"
         style="font-size:40px;font-style:normal;font-weight:normal;line-height:125%;letter-spacing:0px;word-spacing:0px;fill:#000000;fill-opacity:1;stroke:none;font-family:Sans"
         x="109.85774"
         y="119.84894"
         id="text9490"
         sodipodi:linespacing="125%"><tspan
           sodipodi:role="line"
           id="tspan9492"
           x="109.85774"
           y="119.84894"
           style="font-size:35px">CS(T)</tspan></text>
    </g>
    <rect
       style="fill:none;stroke:#000000;stroke-width:1.03151798;stroke-miterlimit:4;stroke-opacity:1;stroke-dasharray:none;stroke-dashoffset:0"
       id="rect9488"
       width="399.83102"
       height="474.36346"
       x="11.496738"
       y="14.658533" />
    <path
       style="fill:none;stroke:#000000;stroke-width:1px;stroke-linecap:butt;stroke-linejoin:miter;stroke-opacity:1"
       d="m 68.341725,225.87441 -1.916123,47.26437"
       id="path9494"
       inkscape:connector-curvature="0" />
    <path
       style="fill:none;stroke:#000000;stroke-width:1.03069341px;stroke-linecap:butt;stroke-linejoin:miter;stroke-opacity:1"
       d="m 67.703017,317.20961 1.277416,28.49774"
       id="path9498"
       inkscape:connector-curvature="0" />
  </g>
  <g
     inkscape:groupmode="layer"
     id="layer2"
     inkscape:label="OTHER" />
</svg>
